<mxfile host="app.diagrams.net" modified="2021-10-07T12:52:34.692Z" agent="5.0 (Windows NT 10.0; Win64; x64) AppleWebKit/537.36 (KHTML, like Gecko) Chrome/86.0.4240.183 Safari/537.36" etag="VbXHIS6Evo1M_cfA-p51" version="15.4.3" type="github">
  <diagram id="kgpKYQtTHZ0yAKxKKP6v" name="Page-1">
    <mxGraphModel dx="1019" dy="784" grid="1" gridSize="10" guides="1" tooltips="1" connect="1" arrows="1" fold="1" page="1" pageScale="1" pageWidth="850" pageHeight="1100" math="0" shadow="0">
      <root>
        <mxCell id="0" />
        <mxCell id="1" parent="0" />
        <mxCell id="C8E4Q8bAebfHq1LpX5wK-18" value="&lt;b&gt;INTERNET&lt;/b&gt;" style="rounded=1;whiteSpace=wrap;html=1;fontSize=24;" vertex="1" parent="1">
          <mxGeometry x="90" y="80" width="657.25" height="350" as="geometry" />
        </mxCell>
        <mxCell id="C8E4Q8bAebfHq1LpX5wK-17" value="&lt;b style=&quot;font-size: 24px&quot;&gt;Google Cloud&lt;br&gt;TIM&lt;/b&gt;" style="rounded=1;whiteSpace=wrap;html=1;" vertex="1" parent="1">
          <mxGeometry x="70" y="550" width="720" height="360" as="geometry" />
        </mxCell>
        <mxCell id="C8E4Q8bAebfHq1LpX5wK-1" value="" style="strokeColor=#dddddd;shadow=1;strokeWidth=1;rounded=1;absoluteArcSize=1;arcSize=2;" vertex="1" parent="1">
          <mxGeometry x="114.13" y="810" width="177.25" height="60" as="geometry" />
        </mxCell>
        <mxCell id="C8E4Q8bAebfHq1LpX5wK-2" value="&lt;font color=&quot;#000000&quot;&gt;Bucket do Parceiro&lt;/font&gt;&lt;br&gt;Cloud Storage" style="sketch=0;dashed=0;connectable=0;html=1;fillColor=#5184F3;strokeColor=none;shape=mxgraph.gcp2.hexIcon;prIcon=cloud_storage;part=1;labelPosition=right;verticalLabelPosition=middle;align=left;verticalAlign=middle;spacingLeft=5;fontColor=#999999;fontSize=12;" vertex="1" parent="C8E4Q8bAebfHq1LpX5wK-1">
          <mxGeometry y="0.5" width="44" height="39" relative="1" as="geometry">
            <mxPoint x="5" y="-19.5" as="offset" />
          </mxGeometry>
        </mxCell>
        <mxCell id="C8E4Q8bAebfHq1LpX5wK-5" value="Permissionamento&lt;br&gt;específico" style="sketch=0;html=1;fillColor=#5184F3;strokeColor=none;verticalAlign=top;labelPosition=center;verticalLabelPosition=bottom;align=center;spacingTop=-6;fontSize=11;fontStyle=1;fontColor=#999999;shape=mxgraph.gcp2.hexIcon;prIcon=cloud_iam" vertex="1" parent="1">
          <mxGeometry x="169.75" y="690" width="66" height="58.5" as="geometry" />
        </mxCell>
        <mxCell id="C8E4Q8bAebfHq1LpX5wK-6" value="JSON&lt;br&gt;credential" style="sketch=0;html=1;fillColor=#5184F3;strokeColor=none;verticalAlign=top;labelPosition=center;verticalLabelPosition=bottom;align=center;spacingTop=-6;fontSize=11;fontStyle=1;fontColor=#999999;shape=mxgraph.gcp2.hexIcon;prIcon=key_management_service" vertex="1" parent="1">
          <mxGeometry x="169.75" y="590" width="66" height="58.5" as="geometry" />
        </mxCell>
        <mxCell id="C8E4Q8bAebfHq1LpX5wK-9" value="" style="strokeColor=#dddddd;shadow=1;strokeWidth=1;rounded=1;absoluteArcSize=1;arcSize=2;" vertex="1" parent="1">
          <mxGeometry x="570" y="810" width="177.25" height="60" as="geometry" />
        </mxCell>
        <mxCell id="C8E4Q8bAebfHq1LpX5wK-10" value="&lt;font color=&quot;#000000&quot;&gt;Bucket da equipe TIM&lt;/font&gt;&lt;br&gt;Cloud Storage" style="sketch=0;dashed=0;connectable=0;html=1;fillColor=#5184F3;strokeColor=none;shape=mxgraph.gcp2.hexIcon;prIcon=cloud_storage;part=1;labelPosition=right;verticalLabelPosition=middle;align=left;verticalAlign=middle;spacingLeft=5;fontColor=#999999;fontSize=12;" vertex="1" parent="C8E4Q8bAebfHq1LpX5wK-9">
          <mxGeometry y="0.5" width="44" height="39" relative="1" as="geometry">
            <mxPoint x="5" y="-19.5" as="offset" />
          </mxGeometry>
        </mxCell>
        <mxCell id="C8E4Q8bAebfHq1LpX5wK-11" value="Permissionamento&lt;br&gt;específico" style="sketch=0;html=1;fillColor=#5184F3;strokeColor=none;verticalAlign=top;labelPosition=center;verticalLabelPosition=bottom;align=center;spacingTop=-6;fontSize=11;fontStyle=1;fontColor=#999999;shape=mxgraph.gcp2.hexIcon;prIcon=cloud_iam" vertex="1" parent="1">
          <mxGeometry x="625.62" y="690" width="66" height="58.5" as="geometry" />
        </mxCell>
        <mxCell id="C8E4Q8bAebfHq1LpX5wK-12" value="JSON&lt;br&gt;credential" style="sketch=0;html=1;fillColor=#5184F3;strokeColor=none;verticalAlign=top;labelPosition=center;verticalLabelPosition=bottom;align=center;spacingTop=-6;fontSize=11;fontStyle=1;fontColor=#999999;shape=mxgraph.gcp2.hexIcon;prIcon=key_management_service" vertex="1" parent="1">
          <mxGeometry x="625.62" y="590" width="66" height="58.5" as="geometry" />
        </mxCell>
        <mxCell id="C8E4Q8bAebfHq1LpX5wK-15" value="Laptop na internet&lt;br&gt;da equipe TIM&lt;br&gt;com VPN ligada&lt;br&gt;para acesso ao&amp;nbsp;&lt;br&gt;compartilhamento&lt;br&gt;no onpremise" style="image;html=1;image=img/lib/clip_art/computers/Laptop_128x128.png" vertex="1" parent="1">
          <mxGeometry x="618.62" y="110" width="80" height="80" as="geometry" />
        </mxCell>
        <mxCell id="C8E4Q8bAebfHq1LpX5wK-21" value="&lt;font color=&quot;#000000&quot; style=&quot;font-size: 14px&quot;&gt;Server do Parceiro&lt;/font&gt;" style="fontColor=#0066CC;verticalAlign=top;verticalLabelPosition=bottom;labelPosition=center;align=center;html=1;outlineConnect=0;fillColor=#CCCCCC;strokeColor=#6881B3;gradientColor=none;gradientDirection=north;strokeWidth=2;shape=mxgraph.networks.pc;fontSize=24;" vertex="1" parent="1">
          <mxGeometry x="152.76" y="115" width="100" height="70" as="geometry" />
        </mxCell>
        <mxCell id="C8E4Q8bAebfHq1LpX5wK-22" value="" style="endArrow=classic;html=1;rounded=0;fontSize=14;fontColor=#000000;edgeStyle=orthogonalEdgeStyle;" edge="1" parent="1" source="C8E4Q8bAebfHq1LpX5wK-8">
          <mxGeometry relative="1" as="geometry">
            <mxPoint x="250" y="540" as="sourcePoint" />
            <mxPoint x="204" y="600" as="targetPoint" />
          </mxGeometry>
        </mxCell>
        <mxCell id="C8E4Q8bAebfHq1LpX5wK-23" value="IP de serviço GCP" style="edgeLabel;resizable=0;html=1;align=center;verticalAlign=middle;fontSize=14;fontColor=#000000;" connectable="0" vertex="1" parent="C8E4Q8bAebfHq1LpX5wK-22">
          <mxGeometry relative="1" as="geometry" />
        </mxCell>
        <mxCell id="C8E4Q8bAebfHq1LpX5wK-24" value="" style="endArrow=classic;html=1;rounded=0;fontSize=14;fontColor=#000000;edgeStyle=orthogonalEdgeStyle;exitX=0.5;exitY=0.84;exitDx=0;exitDy=0;exitPerimeter=0;entryX=0.5;entryY=0.16;entryDx=0;entryDy=0;entryPerimeter=0;" edge="1" parent="1" source="C8E4Q8bAebfHq1LpX5wK-13" target="C8E4Q8bAebfHq1LpX5wK-12">
          <mxGeometry relative="1" as="geometry">
            <mxPoint x="340" y="660" as="sourcePoint" />
            <mxPoint x="440" y="660" as="targetPoint" />
          </mxGeometry>
        </mxCell>
        <mxCell id="C8E4Q8bAebfHq1LpX5wK-25" value="Rede privada Google disponível&lt;br&gt;somente pela VPN TIM ativa:&lt;br&gt;199.36.153.8/30" style="edgeLabel;resizable=0;html=1;align=center;verticalAlign=middle;fontSize=14;fontColor=#000000;" connectable="0" vertex="1" parent="C8E4Q8bAebfHq1LpX5wK-24">
          <mxGeometry relative="1" as="geometry" />
        </mxCell>
        <mxCell id="C8E4Q8bAebfHq1LpX5wK-8" value="&lt;font style=&quot;font-size: 12px&quot;&gt;Cloud SDK&lt;br&gt;gsutil&lt;/font&gt;" style="sketch=0;html=1;fillColor=#5184F3;strokeColor=none;verticalAlign=top;labelPosition=center;verticalLabelPosition=bottom;align=center;spacingTop=-6;fontSize=11;fontStyle=1;fontColor=#999999;shape=mxgraph.gcp2.hexIcon;prIcon=placeholder" vertex="1" parent="1">
          <mxGeometry x="169.76" y="320" width="66" height="58.5" as="geometry" />
        </mxCell>
        <mxCell id="C8E4Q8bAebfHq1LpX5wK-13" value="&lt;font style=&quot;font-size: 12px&quot;&gt;Cloud SDK&lt;br&gt;gsutil&lt;/font&gt;" style="sketch=0;html=1;fillColor=#5184F3;strokeColor=none;verticalAlign=top;labelPosition=center;verticalLabelPosition=bottom;align=center;spacingTop=-6;fontSize=11;fontStyle=1;fontColor=#999999;shape=mxgraph.gcp2.hexIcon;prIcon=placeholder" vertex="1" parent="1">
          <mxGeometry x="625.62" y="320" width="66" height="58.5" as="geometry" />
        </mxCell>
      </root>
    </mxGraphModel>
  </diagram>
</mxfile>
